<?xml version="1.0" encoding="UTF-8" standalone="no"?>
<!-- Generator: Adobe Illustrator 21.1.0, SVG Export Plug-In . SVG Version: 6.00 Build 0)  -->
<svg id="Warstwa_1" style="enable-background:new 0 0 253.1 40.1" xmlns="http://www.w3.org/2000/svg" xml:space="preserve" viewBox="0 0 253.1 40.1" version="1.1" y="0px" x="0px" xmlns:xlink="http://www.w3.org/1999/xlink">
<style type="text/css">
	.st0{fill:#EAA2A2;}
	.st1{fill:#E06663;}
</style>
<path class="st0" d="m26.1 14.1l-5.1-10.3-5.1 10.3c-0.2 0.3-0.5 0.6-0.9 0.6l-11.3 1.8 8.2 8c0.3 0.3 0.4 0.6 0.3 1l-1.9 11.3 10.2-5.4c0.3-0.2 0.8-0.2 1.1 0l10.2 5.3-2-11.3c-0.1-0.4 0.1-0.8 0.3-1l8.2-8.1-11.3-1.6c-0.4 0-0.7-0.3-0.9-0.6z"/>
<path class="st1" d="m41 14.4l-13.1-1.9-5.9-11.9c-0.2-0.3-0.6-0.6-1-0.6s-0.8 0.3-1 0.7l-5.8 11.9-13.2 1.9c-0.4 0.1-0.8 0.4-0.9 0.8s0 0.9 0.3 1.2l9.5 9.2-2.2 13.1c-0.1 0.4 0.1 0.9 0.5 1.1 0.2 0.1 0.4 0.2 0.7 0.2 0.2 0 0.4 0 0.5-0.1l11.7-6.2 11.7 6.1c0.2 0.1 0.4 0.1 0.5 0.1 0.6 0 1.2-0.5 1.2-1.2v-0.3l-2.3-13 9.5-9.3c0.3-0.3 0.4-0.8 0.3-1.2-0.2-0.3-0.5-0.6-1-0.6zm-10.8 10c-0.3 0.3-0.4 0.7-0.3 1l2 11.3-10.2-5.3c-0.3-0.2-0.7-0.2-1.1 0l-10.2 5.4 1.9-11.3c0.1-0.4-0.1-0.8-0.3-1l-8.2-8 11.4-1.7c0.4-0.1 0.7-0.3 0.9-0.6l4.9-10.4 5.1 10.3c0.2 0.3 0.5 0.6 0.9 0.6l11.4 1.6-8.2 8.1z"/>
<path class="st0" d="m78.3 14.1l-5.2-10.3-5.1 10.3c-0.2 0.3-0.5 0.6-0.9 0.6l-11.4 1.7 8.2 8c0.3 0.3 0.4 0.6 0.3 1l-1.9 11.3 10.2-5.4c0.3-0.2 0.8-0.2 1.1 0l10.4 5.5-2-11.3c-0.1-0.4 0.1-0.8 0.3-1l8.2-8.1-11.4-1.6c-0.3-0.1-0.7-0.4-0.8-0.7z"/>
		<path class="st1" d="m93.4 15.2c-0.1-0.4-0.5-0.7-0.9-0.8l-13.1-1.9-5.9-11.9c-0.2-0.4-0.6-0.6-1-0.6s-0.8 0.3-1 0.7l-5.8 11.9-13.1 2c-0.4 0.1-0.8 0.4-0.9 0.8s0 0.9 0.3 1.2l9.5 9.2-2.2 13.1c-0.1 0.4 0.1 0.9 0.5 1.1 0.2 0.1 0.4 0.2 0.7 0.2 0.2 0 0.4 0 0.5-0.1l11.7-6.2 11.7 6.1c0.2 0.1 0.4 0.1 0.5 0.1 0.6 0 1.2-0.5 1.2-1.2v-0.3l-2.3-13 9.5-9.3c0.1-0.2 0.3-0.7 0.1-1.1zm-11.8 9.2c-0.3 0.3-0.4 0.7-0.3 1l2 11.3-10.3-5.2c-0.3-0.2-0.7-0.2-1.1 0l-10.2 5.4 1.9-11.3c0.1-0.4-0.1-0.8-0.3-1l-8.2-8 11.4-1.7c0.4-0.1 0.7-0.3 0.9-0.6l5.1-10.3 5.1 10.3c0.2 0.3 0.5 0.6 0.9 0.6l11.4 1.6-8.3 7.9z"/>
<path class="st0" d="m130.4 14.1l-5.1-10.3-5.1 10.3c-0.2 0.3-0.5 0.6-0.9 0.6l-11.3 1.8 8.2 8c0.3 0.3 0.4 0.6 0.3 1l-1.9 11.3 10.2-5.4c0.3-0.2 0.8-0.2 1.1 0l10.2 5.3-2-11.3c-0.1-0.4 0.1-0.8 0.3-1l8.2-8.1-11.4-1.6c-0.3 0-0.6-0.3-0.8-0.6z"/>
		<path class="st1" d="m145.6 15.2c-0.1-0.4-0.5-0.7-0.9-0.8l-13.1-1.9-5.9-11.9c-0.2-0.4-0.6-0.6-1-0.6s-0.8 0.3-1 0.7l-5.8 11.9-13.1 2c-0.4 0.1-0.8 0.4-0.9 0.8s0 0.9 0.3 1.2l9.5 9.2-2.2 13.1c-0.1 0.4 0.1 0.9 0.5 1.1 0.2 0.1 0.4 0.2 0.7 0.2 0.2 0 0.4 0 0.5-0.1l11.7-6.2 11.7 6.1c0.2 0.1 0.4 0.1 0.5 0.1 0.6 0 1.2-0.5 1.2-1.2v-0.3l-2.3-13 9.5-9.3c0.1-0.2 0.2-0.7 0.1-1.1zm-11.8 9.2c-0.3 0.3-0.4 0.7-0.3 1l2 11.3-10.2-5.3c-0.3-0.2-0.7-0.2-1.1 0l-10.2 5.4 1.9-11.3c0.1-0.4-0.1-0.8-0.3-1l-8.2-8 11.4-1.7c0.4-0.1 0.7-0.3 0.9-0.6l5.1-10.3 5.1 10.3c0.2 0.3 0.5 0.6 0.9 0.6l11.4 1.6-8.4 8z"/>
<path class="st0" d="m182.6 14.1l-5.1-10.3-5.1 10.3c-0.2 0.3-0.5 0.6-0.9 0.6l-11.4 1.7 8.2 8c0.3 0.3 0.4 0.6 0.3 1l-1.9 11.3 10.2-5.4c0.3-0.2 0.8-0.2 1.1 0l10.2 5.3-2-11.3c-0.1-0.4 0.1-0.8 0.3-1l8.2-8.1-11.4-1.6c-0.2 0.1-0.5-0.2-0.7-0.5z"/>
		<path class="st1" d="m197.7 15.2c-0.1-0.4-0.5-0.7-0.9-0.8l-13.1-1.9-5.9-11.9c-0.2-0.4-0.6-0.6-1-0.6s-0.8 0.3-1 0.7l-5.8 11.9-13.1 2c-0.4 0.1-0.8 0.4-0.9 0.8s0 0.9 0.3 1.2l9.5 9.2-2.2 13.1c-0.1 0.4 0.1 0.9 0.5 1.1 0.2 0.1 0.4 0.2 0.7 0.2 0.2 0 0.4 0 0.5-0.1l11.7-6.2 11.7 6.1c0.2 0.1 0.4 0.1 0.5 0.1 0.6 0 1.2-0.5 1.2-1.2v-0.3l-2.3-13 9.5-9.3c0.2-0.2 0.3-0.7 0.1-1.1zm-11.8 9.2c-0.3 0.3-0.4 0.7-0.3 1l2 11.3-10.2-5.3c-0.3-0.2-0.7-0.2-1.1 0l-10.2 5.4 1.9-11.3c0.1-0.4-0.1-0.8-0.3-1l-8.2-8 11.4-1.7c0.4-0.1 0.7-0.3 0.9-0.6l5.1-10.3 5.1 10.3c0.2 0.3 0.5 0.6 0.9 0.6l11.4 1.6-8.4 8z"/>
		<path class="st1" d="m253 15.2c-0.1-0.4-0.5-0.7-0.9-0.8l-13.1-1.9-5.9-11.9c-0.2-0.4-0.6-0.6-1-0.6s-0.8 0.3-1 0.7l-5.8 11.9-13.1 2c-0.4 0.1-0.8 0.4-0.9 0.8s0 0.9 0.3 1.2l9.5 9.2-2.2 13.1c-0.1 0.4 0.1 0.9 0.5 1.1 0.2 0.1 0.4 0.2 0.7 0.2 0.2 0 0.4 0 0.5-0.1l11.7-6.2 11.7 6.1c0.2 0.1 0.4 0.1 0.5 0.1 0.6 0 1.2-0.5 1.2-1.2v-0.3l-2.3-13 9.5-9.3c0.2-0.2 0.3-0.7 0.1-1.1zm-11.8 9.2c-0.3 0.3-0.4 0.7-0.3 1l2 11.3-10.2-5.3c-0.3-0.2-0.7-0.2-1.1 0l-10.2 5.4 1.9-11.3c0.1-0.4-0.1-0.8-0.3-1l-8.2-8 11.4-1.7c0.4-0.1 0.7-0.3 0.9-0.6l5.1-10.3 5.1 10.3c0.2 0.3 0.5 0.6 0.9 0.6l11.4 1.6-8.4 8z"/>
</svg>
