<?xml version="1.0" encoding="utf-8"?>
<!-- Generator: Adobe Illustrator 21.1.0, SVG Export Plug-In . SVG Version: 6.00 Build 0)  -->
<svg version="1.1" id="Warstwa_1" xmlns="http://www.w3.org/2000/svg" xmlns:xlink="http://www.w3.org/1999/xlink" x="0px" y="0px"
	 viewBox="0 0 54.1 54.1" style="enable-background:new 0 0 54.1 54.1;" xml:space="preserve">
<style type="text/css">
	.st0{fill:#E06663;}
</style>
<g>
	<path class="st0" d="M8.4,27.6v-1c0-0.8,0.7-1.5,1.5-1.5h35.3c0.8,0,1.5,0.7,1.5,1.5v1c0,0.8-0.7,1.5-1.5,1.5H9.9
		C9.1,29.1,8.4,28.4,8.4,27.6z"/>
	<g>
		<path class="st0" d="M27.5,54.2c-14.9,0-27-12.1-27-27s12.1-27,27-27s27,12.1,27,27S42.4,54.2,27.5,54.2z M27.5,3.1
			c-13.2,0-24,10.8-24,24s10.8,24,24,24s24-10.8,24-24S40.8,3.1,27.5,3.1z"/>
	</g>
</g>
</svg>
