<?xml version="1.0" encoding="utf-8"?>
<!-- Generator: Adobe Illustrator 21.1.0, SVG Export Plug-In . SVG Version: 6.00 Build 0)  -->
<svg version="1.1" id="Warstwa_1" xmlns="http://www.w3.org/2000/svg" xmlns:xlink="http://www.w3.org/1999/xlink" x="0px" y="0px"
	 viewBox="0 0 67.4 39" style="enable-background:new 0 0 67.4 39;" xml:space="preserve">
<style type="text/css">
	.st0{fill:#F95759;}
</style>
<g>
	<g>
		<path class="st0" d="M20.9,32.3h-3.3c-0.6,0-1,0.5-1,1s0.5,1,1,1h3.3c0.6,0,1-0.5,1-1C21.9,32.7,21.4,32.3,20.9,32.3z"/>
	</g>
	<path class="st0" d="M66.4,37h-2.7h-0.6H37.2h-8.7H20h-1.7H1c-0.6,0-1,0.4-1,1s0.5,1,1,1h17.3H20h8.5h8.7H63h0.6h2.7
		c0.6,0,1-0.4,1-1C67.4,37.5,67,37,66.4,37z"/>
	<g>
		<path class="st0" d="M59.1,32.3h-5.5c-0.6,0-1,0.5-1,1s0.5,1,1,1h5.5c0.6,0,1-0.5,1-1C60.1,32.7,59.7,32.3,59.1,32.3z"/>
	</g>
	<g>
		<path class="st0" d="M50.2,34.3c0.6,0,1-0.5,1-1s-0.5-1-1-1H24.3c-0.6,0-1,0.5-1,1s0.5,1,1,1H50.2z"/>
	</g>
	<g>
		<g>
			<path class="st0" d="M5.2,26.6c0,0.6,0.5,1,1,1c0.9,0,1.7-0.3,2.4-0.7v0.2c0,1.3-1.1,2.4-2.4,2.4c-0.6,0-1,0.5-1,1s0.5,1,1,1
				c0.9,0,1.7-0.3,2.4-0.7V31c0,1.3-1.1,2.4-2.4,2.4c-0.6,0-1,0.5-1,1c0,0.6,0.5,1,1,1c0.9,0,1.7-0.3,2.4-0.7v2.9h2v-2.9
				c0.7,0.5,1.5,0.7,2.4,0.7c0.6,0,1-0.5,1-1c0-0.6-0.4-1-1-1c-1.3,0-2.4-1.1-2.4-2.4v-0.2c0.7,0.5,1.5,0.7,2.4,0.7c0.6,0,1-0.4,1-1
				s-0.4-1-1-1c-1.3,0-2.4-1.1-2.4-2.4v-0.2c0.7,0.5,1.5,0.7,2.4,0.7c0.6,0,1-0.4,1-1s-0.4-1-1-1c-1.3,0-2.4-1.1-2.4-2.4
				c0-0.6-0.4-1-1-1s-1,0.5-1,1c0,1.3-1.1,2.4-2.4,2.4C5.7,25.6,5.2,26,5.2,26.6z"/>
		</g>
		<g>
			<polygon class="st0" points="5,37.6 4.8,37.1 4.8,37.6 			"/>
		</g>
	</g>
	<g>
		<path class="st0" d="M62.2,27.8h-2.4v-3.4c0.7,0.5,1.5,0.7,2.4,0.7c0.6,0,1-0.5,1-1c0-0.6-0.4-1-1-1c-1.3,0-2.4-1.1-2.4-2.4v-0.2
			c0.7,0.5,1.5,0.7,2.4,0.7c0.6,0,1-0.4,1-1s-0.4-1-1-1c-1.3,0-2.4-1.1-2.4-2.4v-0.2c0.7,0.5,1.5,0.7,2.4,0.7c0.6,0,1-0.4,1-1
			c0-0.6-0.4-1-1-1c-1.3,0-2.4-1.1-2.4-2.4c0-0.6-0.5-1-1-1c-0.6,0-1,0.5-1,1c0,1.3-1.1,2.4-2.4,2.4c-0.6,0-1,0.4-1,1
			c0,0.6,0.5,1,1,1c0.9,0,1.7-0.3,2.4-0.7v0.2c0,1.3-1.1,2.4-2.4,2.4c-0.6,0-1,0.5-1,1s0.5,1,1,1c0.9,0,1.7-0.3,2.4-0.7v0.2
			c0,1.3-1.1,2.4-2.4,2.4c-0.6,0-1,0.5-1,1c0,0.6,0.5,1,1,1c0.9,0,1.7-0.3,2.4-0.7v3.4h-3.3l-7.3-13.1c0.2,0,0.3,0,0.5,0
			c4,0,7.2-3.2,7.2-7.2s-3.2-7.2-7.2-7.2c-2.7,0-5.2,1.6-6.4,3.9l-2-3.7C39,0.2,38.7,0,38.3,0s-0.7,0.2-0.9,0.5l-3.6,6.1l-1.3-2.1
			C32.3,4.2,32,4,31.6,4l0,0c-0.4,0-0.7,0.2-0.9,0.5L17.1,27.8H15c-0.6,0-1,0.4-1,1s0.4,1,1,1h47.2c0.6,0,1-0.4,1-1
			C63.2,28.3,62.7,27.8,62.2,27.8z M47.6,2.3c2.9,0,5.2,2.3,5.2,5.2s-2.3,5.2-5.2,5.2c-0.6,0-1.2-0.1-1.8-0.3l-3.3-5.9
			C43,4.1,45.1,2.3,47.6,2.3z M34.3,27.8L34.3,27.8L34.3,27.8h-2.6l0,0H19.4L30.7,8.6l0,0l2-0.1l11.6,19.3H34.3z M46.6,27.8L35,8.5
			L38.3,3l13.8,24.8H46.6z"/>
	</g>
	<g>
		<polygon class="st0" points="31,23.1 29.1,15.7 25.9,16.9 25.2,15.2 30.4,13.2 31.8,19.1 36.1,13.7 37.5,14.9 		"/>
	</g>
</g>
</svg>
