<?xml version="1.0" encoding="utf-8"?>
<!-- Generator: Adobe Illustrator 21.1.0, SVG Export Plug-In . SVG Version: 6.00 Build 0)  -->
<svg version="1.1" id="Warstwa_1" xmlns="http://www.w3.org/2000/svg" xmlns:xlink="http://www.w3.org/1999/xlink" x="0px" y="0px"
	 viewBox="0 0 39.5 26.8" style="enable-background:new 0 0 39.5 26.8;" xml:space="preserve">
<style type="text/css">
	.st0{fill:#F95759;}
</style>
<g>
	<g>
		<path class="st0" d="M11,20.5c0.2,0,0.4-0.1,0.5-0.2c0,0,1.6-2.1,3.2-4.7c2.2-3.5,3.3-6,3.3-7.6c0-3.9-3.2-7-7-7C7.1,1,4,4.2,4,8
			c0,1.6,1.1,4.2,3.3,7.6c1.6,2.5,3.2,4.7,3.2,4.7C10.7,20.4,10.8,20.5,11,20.5L11,20.5z M5.2,8c0-3.2,2.6-5.8,5.8-5.8
			s5.8,2.6,5.8,5.8c0,2.5-3.8,8.3-5.8,10.9C9,16.2,5.2,10.5,5.2,8L5.2,8z"/>
		<path class="st0" d="M15.2,8c0-2.3-1.9-4.2-4.2-4.2C8.7,3.8,6.8,5.6,6.8,8c0,2.3,1.9,4.2,4.2,4.2C13.4,12.2,15.2,10.3,15.2,8
			L15.2,8z M8,8c0-1.7,1.4-3,3-3c1.7,0,3,1.4,3,3c0,1.7-1.4,3-3,3S8,9.6,8,8L8,8z"/>
		<path class="st0" d="M11.6,6.2c0-0.3-0.3-0.6-0.6-0.6c-1.3,0-2.4,1-2.4,2.4c0,0.3,0.3,0.6,0.6,0.6S9.8,8.3,9.8,8
			c0-0.7,0.5-1.2,1.2-1.2C11.4,6.8,11.6,6.5,11.6,6.2L11.6,6.2z"/>
		<path class="st0" d="M27.1,0.9c-3.9,0-7,3.2-7,7c0,1.6,1.1,4.2,3.3,7.6c1.6,2.5,3.2,4.7,3.2,4.7c0.1,0.1,0.3,0.2,0.5,0.2
			s0.4-0.1,0.5-0.2c0,0,1.6-2.1,3.2-4.7c2.2-3.5,3.3-6,3.3-7.6C34.1,4.1,30.9,0.9,27.1,0.9L27.1,0.9z M27.1,18.9
			c-2-2.7-5.8-8.4-5.8-10.9c0-3.2,2.6-5.8,5.8-5.8s5.8,2.6,5.8,5.8C32.9,10.5,29.1,16.2,27.1,18.9L27.1,18.9z"/>
		<path class="st0" d="M27.1,3.8c-2.3,0-4.2,1.9-4.2,4.2s1.9,4.2,4.2,4.2s4.2-1.9,4.2-4.2C31.3,5.6,29.4,3.8,27.1,3.8L27.1,3.8z
			 M27.1,11c-1.7,0-3-1.4-3-3c0-1.7,1.4-3,3-3c1.7,0,3,1.4,3,3S28.7,11,27.1,11L27.1,11z"/>
		<path class="st0" d="M27,21.6c-1.1,0-2,0.9-2,2s0.9,2,2,2s2-0.9,2-2S28.2,21.6,27,21.6L27,21.6z M27,24.4c-0.5,0-0.8-0.4-0.8-0.8
			s0.4-0.8,0.8-0.8c0.5,0,0.8,0.4,0.8,0.8S27.5,24.4,27,24.4L27,24.4z"/>
		<path class="st0" d="M23.4,23h-1.6c-0.3,0-0.6,0.3-0.6,0.6s0.3,0.6,0.6,0.6h1.6c0.3,0,0.6-0.3,0.6-0.6S23.7,23,23.4,23L23.4,23z"
			/>
		<path class="st0" d="M19.7,23H13c-0.3-0.8-1-1.4-1.9-1.4c-1.1,0-2,0.9-2,2s0.9,2,2,2c0.9,0,1.7-0.6,1.9-1.4h6.7
			c0.3,0,0.6-0.3,0.6-0.6S20,23,19.7,23L19.7,23z M11,24.4c-0.5,0-0.8-0.4-0.8-0.8s0.4-0.8,0.8-0.8c0.5,0,0.8,0.4,0.8,0.8
			S11.5,24.4,11,24.4L11,24.4z"/>
	</g>
</g>
</svg>
