<?xml version="1.0" encoding="utf-8"?>
<!-- Generator: Adobe Illustrator 21.1.0, SVG Export Plug-In . SVG Version: 6.00 Build 0)  -->
<svg version="1.1" id="Warstwa_1" xmlns="http://www.w3.org/2000/svg" xmlns:xlink="http://www.w3.org/1999/xlink" x="0px" y="0px"
	 viewBox="0 0 34.7 59.8" style="enable-background:new 0 0 34.7 59.8;" xml:space="preserve">
<style type="text/css">
	.st0{fill:none;stroke:#F95759;stroke-width:5.0905;stroke-miterlimit:10;}
</style>
<g>
	<path class="st0" d="M31,2.6h-7.1c-8,0-13.1,5.3-13.1,13.5v6.2H3.7c-0.6,0-1.1,0.5-1.1,1.1v9c0,0.6,0.5,1.1,1.1,1.1h7.1v22.7
		c0,0.6,0.5,1.1,1.1,1.1h9.3c0.6,0,1.1-0.5,1.1-1.1V33.4h8.3c0.6,0,1.1-0.5,1.1-1.1v-9c0-0.3-0.1-0.6-0.3-0.8
		c-0.2-0.2-0.5-0.3-0.8-0.3h-8.3V17c0-2.5,0.6-3.8,3.9-3.8H31c0.6,0,1.1-0.5,1.1-1.1V3.7C32.1,3.1,31.6,2.6,31,2.6z"/>
</g>
</svg>
