<?xml version="1.0" encoding="utf-8"?>
<!-- Generator: Adobe Illustrator 21.1.0, SVG Export Plug-In . SVG Version: 6.00 Build 0)  -->
<svg version="1.1" id="Warstwa_1" xmlns="http://www.w3.org/2000/svg" xmlns:xlink="http://www.w3.org/1999/xlink" x="0px" y="0px"
	 viewBox="0 0 125.8 73.9" style="enable-background:new 0 0 125.8 73.9;" xml:space="preserve">
<style type="text/css">
	.st0{fill:#F95759;}
</style>
<g>
	<g>
		<path class="st0" d="M21,47.4h3.3l2.7,4.4l2.7-4.4H33v11.4h-3.1v-6.5L27,56.7l0,0l-2.9-4.4v6.5H21V47.4z"/>
		<path class="st0" d="M36.8,47.4H40v11.4h-3.2V47.4z"/>
		<path class="st0" d="M43.7,47.4h3.1V56h5.5v2.8h-8.7V47.4H43.7z"/>
		<path class="st0" d="M55.3,47.4h3.2v11.4h-3.2V47.4z"/>
		<path class="st0" d="M62.2,47.4h3.3l2.7,4.4l2.7-4.4h3.3v11.4h-3.1v-6.5l-2.9,4.4h-0.1l-2.9-4.4v6.5h-3.1V47.4H62.2z"/>
		<path class="st0" d="M78,47.4h3.2v11.4H78V47.4z"/>
		<path class="st0" d="M84.9,47.4H88V56h5.5v2.8h-8.7L84.9,47.4L84.9,47.4z"/>
		<path class="st0" d="M96.5,47.4h9.1v2.7h-6v1.7h5.5v2.5h-5.5v1.8h6.1v2.7h-9.2V47.4z"/>
	</g>
	<g>
		<path class="st0" d="M47.4,32.3h-3.3c-0.6,0-1,0.5-1,1s0.5,1,1,1h3.3c0.6,0,1-0.5,1-1C48.4,32.7,48,32.3,47.4,32.3z"/>
	</g>
	<path class="st0" d="M92.9,37h-2.7h-0.6H63.8h-8.7h-8.5h-1.7H27.5c-0.6,0-1,0.4-1,1s0.5,1,1,1h17.3h1.7H55h8.7h25.8h0.6h2.7
		c0.6,0,1-0.4,1-1C93.9,37.5,93.5,37,92.9,37z"/>
	<g>
		<path class="st0" d="M85.7,32.3h-5.5c-0.6,0-1,0.5-1,1s0.5,1,1,1h5.5c0.6,0,1-0.5,1-1C86.7,32.7,86.2,32.3,85.7,32.3z"/>
	</g>
	<g>
		<path class="st0" d="M76.7,34.3c0.6,0,1-0.5,1-1s-0.5-1-1-1H50.8c-0.6,0-1,0.5-1,1s0.5,1,1,1H76.7z"/>
	</g>
	<g>
		<g>
			<path class="st0" d="M31.7,26.6c0,0.6,0.5,1,1,1c0.9,0,1.7-0.3,2.4-0.7v0.2c0,1.3-1.1,2.4-2.4,2.4c-0.6,0-1,0.5-1,1s0.5,1,1,1
				c0.9,0,1.7-0.3,2.4-0.7V31c0,1.3-1.1,2.4-2.4,2.4c-0.6,0-1,0.5-1,1c0,0.6,0.5,1,1,1c0.9,0,1.7-0.3,2.4-0.7v2.9h2v-2.9
				c0.7,0.5,1.5,0.7,2.4,0.7c0.6,0,1-0.5,1-1c0-0.6-0.4-1-1-1c-1.3,0-2.4-1.1-2.4-2.4v-0.2c0.7,0.5,1.5,0.7,2.4,0.7c0.6,0,1-0.4,1-1
				s-0.4-1-1-1c-1.3,0-2.4-1.1-2.4-2.4v-0.2c0.7,0.5,1.5,0.7,2.4,0.7c0.6,0,1-0.4,1-1s-0.4-1-1-1c-1.3,0-2.4-1.1-2.4-2.4
				c0-0.6-0.4-1-1-1s-1,0.5-1,1c0,1.3-1.1,2.4-2.4,2.4C32.2,25.6,31.7,26,31.7,26.6z"/>
		</g>
		<g>
			<polygon class="st0" points="31.6,37.6 31.3,37.1 31.3,37.6 			"/>
		</g>
	</g>
	<g>
		<path class="st0" d="M88.7,27.8h-2.4v-3.4c0.7,0.5,1.5,0.7,2.4,0.7c0.6,0,1-0.5,1-1c0-0.6-0.4-1-1-1c-1.3,0-2.4-1.1-2.4-2.4v-0.2
			c0.7,0.5,1.5,0.7,2.4,0.7c0.6,0,1-0.4,1-1s-0.4-1-1-1c-1.3,0-2.4-1.1-2.4-2.4v-0.2c0.7,0.5,1.5,0.7,2.4,0.7c0.6,0,1-0.4,1-1
			c0-0.6-0.4-1-1-1c-1.3,0-2.4-1.1-2.4-2.4c0-0.6-0.5-1-1-1c-0.6,0-1,0.5-1,1c0,1.3-1.1,2.4-2.4,2.4c-0.6,0-1,0.4-1,1
			c0,0.6,0.5,1,1,1c0.9,0,1.7-0.3,2.4-0.7v0.2c0,1.3-1.1,2.4-2.4,2.4c-0.6,0-1,0.5-1,1s0.5,1,1,1c0.9,0,1.7-0.3,2.4-0.7v0.2
			c0,1.3-1.1,2.4-2.4,2.4c-0.6,0-1,0.5-1,1c0,0.6,0.5,1,1,1c0.9,0,1.7-0.3,2.4-0.7v3.4H81l-7.3-13.1c0.2,0,0.3,0,0.5,0
			c4,0,7.2-3.2,7.2-7.2s-3.2-7.2-7.2-7.2c-2.7,0-5.2,1.6-6.4,3.9l-2-3.7c-0.3-0.3-0.6-0.5-1-0.5c-0.4,0-0.7,0.2-0.9,0.5l-3.6,6.1
			L59,4.5C58.8,4.2,58.5,4,58.1,4l0,0c-0.4,0-0.7,0.2-0.9,0.5L43.6,27.8h-2.1c-0.6,0-1,0.4-1,1s0.4,1,1,1h47.2c0.6,0,1-0.4,1-1
			C89.7,28.3,89.2,27.8,88.7,27.8z M74.1,2.3c2.9,0,5.2,2.3,5.2,5.2s-2.3,5.2-5.2,5.2c-0.6,0-1.2-0.1-1.8-0.3L69,6.5
			C69.5,4.1,71.6,2.3,74.1,2.3z M60.8,27.8L60.8,27.8L60.8,27.8h-2.6l0,0H45.9L57.2,8.6l0,0l2-0.1l11.6,19.3H60.8z M73.2,27.8
			L61.5,8.5L64.8,3l13.8,24.8H73.2z"/>
	</g>
	<g>
		<polygon class="st0" points="57.5,23.1 55.6,15.7 52.4,16.9 51.8,15.2 56.9,13.2 58.4,19.1 62.7,13.7 64.1,14.9 		"/>
	</g>
	<g>
		<path class="st0" d="M0.1,67.9v-1h4.5v0.8l-3,3.5h3v1H0v-0.8l3-3.5H0.1z"/>
		<path class="st0" d="M14.8,72.2v-0.9c-0.4,0.5-0.9,1-1.8,1c-1.2,0-2.4-1-2.4-2.7c0-1.8,1.2-2.7,2.4-2.7c0.9,0,1.4,0.4,1.8,0.9V65
			H16v7.3h-1.2V72.2z M13.3,67.9c-0.8,0-1.5,0.6-1.5,1.7c0,1,0.7,1.7,1.5,1.7s1.5-0.7,1.5-1.7S14.1,67.9,13.3,67.9z"/>
		<path class="st0" d="M18.4,67.9v-1h4.5v0.8l-3,3.5h3v1h-4.6v-0.8l3-3.5H18.4z"/>
		<path class="st0" d="M25.1,66.1V65h1.3v1.1H25.1z M25.2,72.2V67h1.2v5.3h-1.2V72.2z"/>
		<path class="st0" d="M31.4,71.4c0.6,0,1-0.2,1.4-0.6l0.7,0.6c-0.5,0.6-1.2,1-2.2,1c-1.5,0-2.7-1.1-2.7-2.7c0-1.5,1.1-2.8,2.6-2.8
			c1.7,0,2.5,1.3,2.5,2.8c0,0.1,0,0.2,0,0.3h-3.9C30,70.9,30.6,71.4,31.4,71.4z M32.6,69.2c-0.1-0.8-0.5-1.4-1.3-1.4
			c-0.7,0-1.3,0.6-1.4,1.4H32.6z"/>
		<path class="st0" d="M38.4,72.3c-1.6,0-2.7-1.2-2.7-2.7s1.2-2.8,2.7-2.8c1,0,1.6,0.4,2.1,0.9l-0.7,0.8c-0.4-0.4-0.8-0.7-1.4-0.7
			c-0.9,0-1.5,0.8-1.5,1.7c0,0.9,0.6,1.7,1.6,1.7c0.6,0,1-0.3,1.4-0.7l0.7,0.7C40,71.9,39.4,72.3,38.4,72.3z"/>
		<path class="st0" d="M47.6,72.2h-1.4l-1.6-2.3l-0.7,0.8v1.5h-1.2v-7.3h1.2v4.4l2.2-2.3h1.5l-2.1,2.1L47.6,72.2z"/>
		<path class="st0" d="M49.5,66.1V65h1.3v1.1H49.5z M49.5,72.2V67h1.2v5.3h-1.2V72.2z"/>
		<path class="st0" d="M55.8,71.4c0.6,0,1-0.2,1.4-0.6l0.7,0.6c-0.5,0.6-1.2,1-2.2,1c-1.5,0-2.7-1.1-2.7-2.7c0-1.5,1.1-2.8,2.6-2.8
			c1.7,0,2.5,1.3,2.5,2.8c0,0.1,0,0.2,0,0.3h-3.9C54.4,70.9,55,71.4,55.8,71.4z M56.9,69.2c-0.1-0.8-0.5-1.4-1.3-1.4
			c-0.7,0-1.3,0.6-1.4,1.4H56.9z"/>
		<path class="st0" d="M66.5,66.8c1.1,0,1.8,0.7,1.8,2v3.4h-1.2v-3c0-0.8-0.4-1.3-1.1-1.3s-1.1,0.5-1.1,1.3v3h-1.2v-3
			c0-0.8-0.4-1.3-1.1-1.3c-0.7,0-1.1,0.5-1.1,1.3v3h-1.2V67h1.2v0.8c0.3-0.5,0.8-0.9,1.6-0.9s1.3,0.4,1.6,0.9
			C65.2,67.2,65.7,66.8,66.5,66.8z"/>
		<path class="st0" d="M78.1,72.2v-0.6c-0.4,0.4-0.9,0.8-1.7,0.8c-1,0-1.9-0.6-1.9-1.6l0,0c0-1.1,0.9-1.7,2.1-1.7
			c0.6,0,1,0.1,1.5,0.2v-0.1c0-0.7-0.5-1.1-1.3-1.1c-0.6,0-1,0.1-1.5,0.3l-0.3-1c0.6-0.3,1.1-0.4,2-0.4c1.6,0,2.3,0.8,2.3,2.2v3.1
			h-1.2V72.2z M78.1,70c-0.3-0.1-0.7-0.2-1.2-0.2c-0.8,0-1.2,0.3-1.2,0.8l0,0c0,0.5,0.4,0.8,1,0.8c0.8,0,1.4-0.4,1.4-1.1
			C78.1,70.3,78.1,70,78.1,70z"/>
		<path class="st0" d="M86.6,72.2h-1.4l-1.6-2.3l-0.7,0.8v1.5h-1.2v-7.3h1.2v4.4l2.2-2.3h1.5l-2.1,2.1L86.6,72.2z"/>
		<path class="st0" d="M89.8,70.6c0,0.5,0.2,0.7,0.6,0.7c0.3,0,0.5-0.1,0.7-0.2v1c-0.3,0.2-0.6,0.3-1.1,0.3c-0.9,0-1.5-0.4-1.5-1.5
			V68H88v-1h0.7v-1.4h1.2V67h1.4v1h-1.4L89.8,70.6L89.8,70.6z"/>
		<path class="st0" d="M96.3,72.4c-0.4,1.1-0.9,1.5-1.7,1.5c-0.5,0-0.9-0.1-1.2-0.3l0.4-0.9c0.2,0.1,0.5,0.2,0.7,0.2
			c0.3,0,0.5-0.1,0.7-0.6L93,67h1.3l1.5,3.9l1.4-3.9h1.3L96.3,72.4z"/>
		<path class="st0" d="M105.6,70.6l1.1-3.6h1.2l-1.7,5.3H105l-1.2-3.6l-1.2,3.6h-1.1L99.9,67h1.2l1.1,3.6l1.2-3.6h1L105.6,70.6z"/>
		<path class="st0" d="M111.1,72.2h-1.2V67h1.2v0.8c0.3-0.5,0.8-0.9,1.6-0.9c1.2,0,1.9,0.8,1.9,2v3.4h-1.2v-3c0-0.8-0.4-1.3-1.1-1.3
			s-1.2,0.5-1.2,1.3C111.1,69.3,111.1,72.2,111.1,72.2z"/>
		<path class="st0" d="M117.1,66.1V65h1.3v1.1H117.1z M117.2,72.2V67h1.2v5.3h-1.2V72.2z"/>
		<path class="st0" d="M123.4,71.4c0.6,0,1-0.2,1.4-0.6l0.7,0.6c-0.5,0.6-1.2,1-2.2,1c-1.5,0-2.7-1.1-2.7-2.7c0-1.5,1.1-2.8,2.6-2.8
			c1.7,0,2.5,1.3,2.5,2.8c0,0.1,0,0.2,0,0.3h-3.9C122,70.9,122.6,71.4,123.4,71.4z M124.6,69.2c-0.1-0.8-0.5-1.4-1.3-1.4
			c-0.7,0-1.3,0.6-1.4,1.4H124.6z"/>
	</g>
</g>
</svg>
