<?xml version="1.0" encoding="utf-8"?>
<!-- Generator: Adobe Illustrator 21.1.0, SVG Export Plug-In . SVG Version: 6.00 Build 0)  -->
<svg version="1.1" id="Warstwa_1" xmlns="http://www.w3.org/2000/svg" xmlns:xlink="http://www.w3.org/1999/xlink" x="0px" y="0px"
	 viewBox="0 0 40.5 60.3" style="enable-background:new 0 0 40.5 60.3;" xml:space="preserve">
<style type="text/css">
	.st0{clip-path:url(#SVGID_2_);}
</style>
<g>
	<g>
		<defs>
			<rect id="SVGID_1_" width="40.5" height="60.3"/>
		</defs>
		<clipPath id="SVGID_2_">
			<use xlink:href="#SVGID_1_"  style="overflow:visible;"/>
		</clipPath>
		<path class="st0" d="M20.2,3.3c-0.1,0-0.1,0-0.2,0c-0.5,0-1,0.5-1,1c0,0.5,0.5,1,1,1c0,0,0.1,0,0.1,0c1.7,0,3,1.4,3,3
			c0,0.7-0.2,1.4-0.7,1.9c-0.3,0.4-0.3,1,0.1,1.4c0.2,0.1,0.4,0.2,0.6,0.2c0.3,0,0.6-0.1,0.8-0.4c0.7-0.9,1.1-2,1.1-3.1
			C25.2,5.6,23,3.3,20.2,3.3L20.2,3.3z M20.2,3.3"/>
		<path class="st0" d="M36.4,26.9h-4.4c-0.6-1.4-1.5-2.7-2.6-3.8c-1-1-2.1-1.8-3.3-2.4c-0.7-0.4-1.1-1.1-1.1-1.8
			c0-2,0.6-3.9,1.8-5.3c1.2-1.5,1.8-3.3,1.8-5.2c0-2.3-0.9-4.4-2.5-6c-1.6-1.6-3.8-2.4-6.1-2.3c-4.2,0.2-7.7,3.6-8,7.8
			c-0.1,2,0.5,4,1.7,5.6c1.2,1.6,1.9,3.5,1.9,5.4v0c0,0.8-0.4,1.5-1.1,1.8c-2.7,1.3-4.8,3.5-6,6.2H4c-2.2,0-4,1.8-4,4
			c0,2.2,1.8,4,4,4h9.6c-3.9,2.4-6.5,6.7-6.5,11.6c0,7.5,6.1,13.6,13.6,13.6c7.5,0,13.6-6.1,13.6-13.6c0-4.9-2.6-9.2-6.5-11.6h8.6
			c2.2,0,4-1.8,4-4C40.4,28.7,38.6,26.9,36.4,26.9L36.4,26.9z M15.3,22.5c1.3-0.7,2.2-2.1,2.2-3.6v0c0-2.4-0.8-4.6-2.3-6.6
			C14.3,11,13.8,9.5,13.9,8c0.2-3.2,2.9-5.8,6.1-5.9c1.7-0.1,3.4,0.6,4.6,1.8c1.3,1.2,1.9,2.8,1.9,4.6c0,1.5-0.5,2.8-1.4,4
			c-1.5,1.8-2.3,4.1-2.3,6.5c0,1.5,0.9,2.9,2.2,3.6c1,0.5,2,1.2,2.8,2c0.7,0.7,1.3,1.5,1.8,2.4h-19C11.7,25,13.4,23.5,15.3,22.5
			L15.3,22.5z M32.3,46.6c0,6.4-5.2,11.6-11.6,11.6C14.3,58.2,9,53,9,46.6c0-5.4,3.7-9.9,8.6-11.2v2c-4,1.3-6.7,5-6.7,9.2
			c0,5.3,4.3,9.7,9.7,9.7c5.3,0,9.7-4.3,9.7-9.7c0-4.2-2.7-7.9-6.7-9.2v-2C28.6,36.7,32.3,41.2,32.3,46.6L32.3,46.6z M20.7,42.7
			c1.6,0,3-1.3,3-3v-0.3c2.8,1.2,4.7,3.9,4.7,7.1c0,4.2-3.4,7.7-7.7,7.7c-4.2,0-7.7-3.4-7.7-7.7c0-3.2,1.9-5.9,4.7-7.1v0.3
			C17.7,41.4,19,42.7,20.7,42.7L20.7,42.7z M19.7,39.8V35c0.3,0,0.7,0,1,0c0.3,0,0.7,0,1,0v4.8c0,0.5-0.4,1-1,1
			C20.1,40.8,19.7,40.3,19.7,39.8L19.7,39.8z M36.4,33H4C2.9,33,2,32.1,2,30.9s0.9-2.1,2.1-2.1h32.3c1.1,0,2.1,0.9,2.1,2.1
			S37.5,33,36.4,33L36.4,33z M36.4,33"/>
	</g>
</g>
</svg>
