<?xml version="1.0" encoding="utf-8"?>
<!-- Generator: Adobe Illustrator 21.1.0, SVG Export Plug-In . SVG Version: 6.00 Build 0)  -->
<svg version="1.1" id="Warstwa_1" xmlns="http://www.w3.org/2000/svg" xmlns:xlink="http://www.w3.org/1999/xlink" x="0px" y="0px"
	 viewBox="0 0 56.5 56.5" style="enable-background:new 0 0 56.5 56.5;" xml:space="preserve">
<style type="text/css">
	.st0{fill:#F95759;}
</style>
<g>
	<g>
		<path class="st0" d="M40.5,56.5H16.1C7.2,56.5,0,49.3,0,40.5V16.1C0,7.2,7.2,0,16.1,0h24.4c8.9,0,16.1,7.2,16.1,16.1v24.4
			C56.5,49.3,49.3,56.5,40.5,56.5z M16.1,4.8C9.9,4.8,4.9,9.8,4.9,16v24.4c0,6.2,5,11.2,11.2,11.2h24.4c6.2,0,11.2-5,11.2-11.2V16.1
			c0-6.2-5-11.2-11.2-11.2H16.1V4.8z"/>
	</g>
	<g>
		<path class="st0" d="M28.3,42.8c-8,0-14.5-6.5-14.5-14.5s6.5-14.5,14.5-14.5s14.5,6.5,14.5,14.5S36.3,42.8,28.3,42.8z M28.3,18.6
			c-5.3,0-9.6,4.3-9.6,9.6s4.3,9.6,9.6,9.6s9.6-4.3,9.6-9.6C37.9,23,33.6,18.6,28.3,18.6z"/>
	</g>
	<g>
		<circle class="st0" cx="43.4" cy="13" r="3.5"/>
	</g>
</g>
</svg>
