<?xml version="1.0" encoding="utf-8"?>
<!-- Generator: Adobe Illustrator 21.1.0, SVG Export Plug-In . SVG Version: 6.00 Build 0)  -->
<svg version="1.1" id="Warstwa_1" xmlns="http://www.w3.org/2000/svg" xmlns:xlink="http://www.w3.org/1999/xlink" x="0px" y="0px"
	 viewBox="0 0 61.7 42.5" style="enable-background:new 0 0 61.7 42.5;" xml:space="preserve">
<style type="text/css">
	.st0{fill:#F95759;stroke:#F95759;stroke-width:1.2726;stroke-miterlimit:10;}
</style>
<g>
	<g>
		<path class="st0" d="M59.4,41.9h-57c-1,0-1.7-0.8-1.7-1.7V2.4c0-1,0.8-1.7,1.7-1.7h57c1,0,1.7,0.8,1.7,1.7v37.8
			C61.1,41.1,60.3,41.9,59.4,41.9z M4.1,38.4h53.6V4.1H4.1V38.4z"/>
	</g>
	<g>
		<path class="st0" d="M30.9,23c-0.3,0-0.7-0.1-1-0.3L1.4,3.8c-0.8-0.5-1-1.6-0.5-2.4s1.6-1,2.4-0.5l27.6,18.3L58.4,0.9
			c0.8-0.5,1.9-0.3,2.4,0.5s0.3,1.9-0.5,2.4L31.8,22.7C31.5,22.9,31.2,23,30.9,23z"/>
	</g>
	<g>
		<path class="st0" d="M2.4,40.1"/>
	</g>
</g>
</svg>
