<?xml version="1.0" encoding="utf-8"?>
<!-- Generator: Adobe Illustrator 21.1.0, SVG Export Plug-In . SVG Version: 6.00 Build 0)  -->
<svg version="1.1" id="Warstwa_1" xmlns="http://www.w3.org/2000/svg" xmlns:xlink="http://www.w3.org/1999/xlink" x="0px" y="0px"
	 viewBox="0 0 198.1 137.5" style="enable-background:new 0 0 198.1 137.5;" xml:space="preserve">
<style type="text/css">
	.st0{fill:#F95759;}
</style>
<g>
	<g>
		<path class="st0" d="M0,110.9h7.8l6.3,10.3l6.3-10.3h7.8v26.6h-7.3v-15.3l-6.8,10.4H14l-6.8-10.3v15.2H0V110.9z"/>
		<path class="st0" d="M36.9,110.9h7.4v26.6h-7.4V110.9z"/>
		<path class="st0" d="M53,110.9h7.4V131h12.9v6.5H53V110.9z"/>
		<path class="st0" d="M80.3,110.9h7.4v26.6h-7.4V110.9z"/>
		<path class="st0" d="M96.4,110.9h7.8l6.3,10.3l6.3-10.3h7.8v26.6h-7.3v-15.3l-6.8,10.4h-0.2l-6.8-10.3v15.2h-7.2L96.4,110.9
			L96.4,110.9z"/>
		<path class="st0" d="M133.3,110.9h7.4v26.6h-7.4V110.9z"/>
		<path class="st0" d="M149.3,110.9h7.4V131h12.9v6.5h-20.2L149.3,110.9L149.3,110.9z"/>
		<path class="st0" d="M176.5,110.9h21.4v6.3h-14.1v4h12.8v5.8h-12.8v4.2h14.3v6.3h-21.6L176.5,110.9L176.5,110.9z"/>
	</g>
	<g>
		<path class="st0" d="M61.8,75.5H54c-1.3,0-2.4,1.1-2.4,2.4s1.1,2.4,2.4,2.4h7.8c1.3,0,2.4-1.1,2.4-2.4
			C64.1,76.5,63.1,75.5,61.8,75.5z"/>
	</g>
	<path class="st0" d="M168.2,86.1h-6.4h-1.4H100H79.6h-20h-4H15.3c-1.3,0-2.4,1.2-2.4,2.5s1.1,2.5,2.4,2.5h40.4h4h20H100h60.4h1.4
		h6.4c1.3,0,2.4-1.2,2.4-2.5C170.6,87.3,169.5,86.1,168.2,86.1z"/>
	<g>
		<path class="st0" d="M151.2,75.5h-12.9c-1.3,0-2.4,1.1-2.4,2.4s1.1,2.4,2.4,2.4h12.9c1.3,0,2.4-1.1,2.4-2.4
			C153.6,76.5,152.5,75.5,151.2,75.5z"/>
	</g>
	<g>
		<path class="st0" d="M130.3,80.2c1.3,0,2.4-1.1,2.4-2.4s-1.1-2.4-2.4-2.4H69.7c-1.3,0-2.4,1.1-2.4,2.4s1.1,2.4,2.4,2.4H130.3z"/>
	</g>
	<g>
		<g>
			<path class="st0" d="M25.1,62.1c0,1.3,1.1,2.4,2.4,2.4c2.1,0,4-0.6,5.6-1.7v0.5c0,3.1-2.5,5.6-5.6,5.6c-1.3,0-2.4,1.1-2.4,2.4
				s1.1,2.4,2.4,2.4c2.1,0,4-0.6,5.6-1.7v0.5c0,3.1-2.5,5.6-5.6,5.6c-1.3,0-2.4,1.1-2.4,2.4s1.1,2.4,2.4,2.4c2.1,0,4-0.6,5.6-1.7
				v6.7h4.7v-6.7c1.6,1.1,3.6,1.7,5.6,1.7c1.3,0,2.4-1.1,2.4-2.4s-1.1-2.4-2.4-2.4c-3.1,0-5.6-2.5-5.6-5.6V72
				c1.6,1.1,3.6,1.7,5.6,1.7c1.3,0,2.4-1.1,2.4-2.4s-1.1-2.4-2.4-2.4c-3.1,0-5.6-2.5-5.6-5.6v-0.5c1.6,1.1,3.6,1.7,5.6,1.7
				c1.3,0,2.4-1.1,2.4-2.4c0-1.3-1.1-2.4-2.4-2.4c-3.1,0-5.6-2.5-5.6-5.6c0-1.3-1.1-2.4-2.4-2.4c-1.3,0-2.4,1.1-2.4,2.4
				c0,3.1-2.5,5.6-5.6,5.6C26.2,59.8,25.1,60.8,25.1,62.1z"/>
		</g>
		<g>
			<polygon class="st0" points="24.7,87.9 24.1,86.8 24.1,87.9 			"/>
		</g>
	</g>
	<g>
		<path class="st0" d="M158.3,65.1h-5.7v-7.8c1.6,1.1,3.6,1.7,5.6,1.7c1.3,0,2.4-1.1,2.4-2.4c0-1.3-1.1-2.4-2.4-2.4
			c-3.1,0-5.6-2.5-5.6-5.6v-0.5c1.6,1.1,3.6,1.7,5.6,1.7c1.3,0,2.4-1.1,2.4-2.4s-1.1-2.4-2.4-2.4c-3.1,0-5.6-2.5-5.6-5.6V39
			c1.6,1.1,3.6,1.7,5.6,1.7c1.3,0,2.4-1.1,2.4-2.4s-1.1-2.4-2.4-2.4c-3.1,0-5.6-2.5-5.6-5.6c0-1.3-1.1-2.4-2.4-2.4
			c-1.3,0-2.4,1.1-2.4,2.4c0,3.1-2.5,5.6-5.6,5.6c-1.3,0-2.4,1.1-2.4,2.4s1.1,2.4,2.4,2.4c2.1,0,4-0.6,5.6-1.7v0.5
			c0,3.1-2.5,5.6-5.6,5.6c-1.3,0-2.4,1.1-2.4,2.4s1.1,2.4,2.4,2.4c2.1,0,4-0.6,5.6-1.7v0.5c0,3.1-2.5,5.6-5.6,5.6
			c-1.3,0-2.4,1.1-2.4,2.4c0,1.3,1.1,2.4,2.4,2.4c2.1,0,4-0.6,5.6-1.7v7.8H140l-17-30.8c0.4,0,0.8,0,1.2,0c9.3,0,16.9-7.6,16.9-16.9
			s-7.6-16.9-16.9-16.9c-6.4,0-12.1,3.7-15,9.1l-4.8-8.5c-0.4-0.7-1.2-1.2-2-1.2s-1.6,0.4-2.1,1.2L92,15.3l-3-5
			c-0.4-0.7-1.2-1.1-2-1.1l0,0c-0.8,0-1.6,0.4-2,1.2L52.8,65.1h-5c-1.3,0-2.4,1.1-2.4,2.4s1.1,2.4,2.4,2.4h110.5
			c1.3,0,2.4-1.1,2.4-2.4C160.6,66.2,159.6,65.1,158.3,65.1z M124.2,5.4c6.7,0,12.2,5.5,12.2,12.2s-5.5,12.2-12.2,12.2
			c-1.5,0-2.9-0.3-4.2-0.8l-7.7-13.9C113.4,9.5,118.4,5.4,124.2,5.4z M93.2,65.1L93.2,65.1L93.2,65.1h-6l0,0H58.3l26.4-44.9l0,0
			l4.7-0.2l27.1,45.1C116.5,65.1,93.2,65.1,93.2,65.1z M122,65.1L94.8,19.9l7.6-12.8l32.4,58.1L122,65.1L122,65.1z"/>
	</g>
	<g>
		<polygon class="st0" points="85.3,54.1 81,36.6 73.4,39.5 71.9,35.5 84,30.9 87.4,44.7 97.4,32.1 100.7,34.7 		"/>
	</g>
</g>
</svg>
