<?xml version="1.0" encoding="utf-8"?>
<!-- Generator: Adobe Illustrator 21.1.0, SVG Export Plug-In . SVG Version: 6.00 Build 0)  -->
<svg version="1.1" id="Warstwa_1" xmlns="http://www.w3.org/2000/svg" xmlns:xlink="http://www.w3.org/1999/xlink" x="0px" y="0px"
	 viewBox="0 0 54.1 54.1" style="enable-background:new 0 0 54.1 54.1;" xml:space="preserve">
<style type="text/css">
	.st0{fill:#E06663;}
</style>
<g>
	<path class="st0" d="M27.6,46.1h-1c-0.8,0-1.5-0.7-1.5-1.5V9.4c0-0.8,0.7-1.5,1.5-1.5h1C28.4,8,29,8.6,29,9.4v35.3
		C29,45.5,28.4,46.1,27.6,46.1z"/>
	<path class="st0" d="M8,27.6v-1c0-0.8,0.7-1.5,1.5-1.5h35.3c0.8,0,1.5,0.7,1.5,1.5v1c0,0.8-0.7,1.5-1.5,1.5H9.4
		C8.6,29,8,28.4,8,27.6z"/>
	<g>
		<path class="st0" d="M27,54.1C12.1,54.1,0,42,0,27S12.1,0,27,0s27,12.1,27,27S42,54.1,27,54.1z M27,3C13.8,3,3,13.8,3,27
			s10.8,24,24,24s24-10.8,24-24S40.3,3,27,3z"/>
	</g>
</g>
</svg>
