<?xml version="1.0" encoding="utf-8"?>
<!-- Generator: Adobe Illustrator 21.1.0, SVG Export Plug-In . SVG Version: 6.00 Build 0)  -->
<svg version="1.1" id="Warstwa_1" xmlns="http://www.w3.org/2000/svg" xmlns:xlink="http://www.w3.org/1999/xlink" x="0px" y="0px"
	 viewBox="0 0 27 25" style="enable-background:new 0 0 27 25;" xml:space="preserve">
<style type="text/css">
	.st0{fill:#E06663;stroke:#E06663;stroke-width:0.25;stroke-miterlimit:10;}
</style>
<path class="st0" d="M13.9,0.4c-0.1-0.2-0.2-0.3-0.4-0.3c-0.2,0-0.3,0.1-0.4,0.3L0.2,24.2c-0.1,0.2,0,0.5,0.2,0.7
	c0.1,0,0.2,0.1,0.2,0.1c0.2,0,0.3-0.1,0.4-0.3l6.7-12.3l2.5,2.3c0.2,0.2,0.5,0.2,0.6,0l2.7-2.4l2.7,2.4c0.1,0.1,0.2,0.1,0.3,0.1
	c0.1,0,0.2,0,0.3-0.1l2.5-2.3L26,24.6c0.1,0.2,0.4,0.3,0.7,0.2c0.2-0.1,0.3-0.4,0.2-0.7L13.9,0.4z M16.5,13.6l-2.7-2.4
	c-0.2-0.2-0.5-0.2-0.6,0l-2.7,2.4l-2.4-2.1l5.4-9.9l5.4,9.9L16.5,13.6z M16.5,13.6"/>
</svg>
