<?xml version="1.0" encoding="utf-8"?>
<!-- Generator: Adobe Illustrator 21.1.0, SVG Export Plug-In . SVG Version: 6.00 Build 0)  -->
<svg version="1.1" id="Warstwa_1" xmlns="http://www.w3.org/2000/svg" xmlns:xlink="http://www.w3.org/1999/xlink" x="0px" y="0px"
	 viewBox="0 0 53.6 45.2" style="enable-background:new 0 0 53.6 45.2;" xml:space="preserve">
<g>
	<path d="M49,14.3H37V4.6C37,2.1,35,0,32.4,0H4.6C2.1,0,0,2.1,0,4.6v16.8c0,2.5,2.1,4.6,4.6,4.6h2.7l3.4,4.6c0.2,0.3,0.6,0.5,1,0.5
		c0.4,0,0.7-0.2,1-0.5l3.4-4.6h0.5v9.7c0,2.5,2.1,4.6,4.6,4.6h16.4l3.4,4.6c0.2,0.3,0.6,0.5,1,0.5c0.4,0,0.7-0.2,1-0.5l3.4-4.6H49
		c2.5,0,4.6-2.1,4.6-4.6V18.8C53.6,16.3,51.5,14.3,49,14.3L49,14.3z M15.4,23.5c-0.4,0-0.7,0.2-1,0.5l-2.8,3.7L8.8,24
		c-0.2-0.3-0.6-0.5-1-0.5H4.5c-1.2,0-2.2-1-2.2-2.2V4.6c0-1.2,1-2.2,2.2-2.2h27.9c1.2,0,2.2,1,2.2,2.2v16.8c0,1.2-1,2.2-2.2,2.2
		H15.4z M51.2,35.6c0,1.2-1,2.2-2.2,2.2h-3.4c-0.4,0-0.7,0.2-1,0.5L41.9,42L39,38.3c-0.2-0.3-0.6-0.5-1-0.5H21.2
		c-1.2,0-2.2-1-2.2-2.2v-9.7h13.5c0.9,0,1.7-0.3,2.4-0.7h9c0.6,0,1.2-0.5,1.2-1.2c0-0.6-0.5-1.2-1.2-1.2h-7.1c0.2-0.5,0.3-1,0.3-1.5
		v-4.6H49c1.2,0,2.2,1,2.2,2.2L51.2,35.6L51.2,35.6z M45,30.7c0,0.6-0.5,1.2-1.2,1.2H26.3c-0.6,0-1.2-0.5-1.2-1.2
		c0-0.6,0.5-1.2,1.2-1.2h17.5C44.5,29.5,45,30.1,45,30.7L45,30.7z M27.2,17.6H9.7c-0.6,0-1.2-0.5-1.2-1.2c0-0.6,0.5-1.2,1.2-1.2
		h17.5c0.6,0,1.2,0.5,1.2,1.2C28.4,17.1,27.8,17.6,27.2,17.6L27.2,17.6z M8.5,9.7c0-0.6,0.5-1.2,1.2-1.2h10.5c0.6,0,1.2,0.5,1.2,1.2
		c0,0.6-0.5,1.2-1.2,1.2H9.7C9,10.9,8.5,10.4,8.5,9.7L8.5,9.7z M8.5,9.7"/>
</g>
</svg>
