<?xml version="1.0" encoding="utf-8"?>
<!-- Generator: Adobe Illustrator 21.1.0, SVG Export Plug-In . SVG Version: 6.00 Build 0)  -->
<svg version="1.1" id="Warstwa_1" xmlns="http://www.w3.org/2000/svg" xmlns:xlink="http://www.w3.org/1999/xlink" x="0px" y="0px"
	 viewBox="0 0 63.9 59.2" style="enable-background:new 0 0 63.9 59.2;" xml:space="preserve">
<style type="text/css">
	.st0{fill:#E06663;}
</style>
<g>
	<path class="st0" d="M46.7,26.5H26.7c-0.9,0-1.6,0.7-1.6,1.6c0,0.9,0.7,1.6,1.6,1.6h20.1c0.9,0,1.6-0.7,1.6-1.6
		C48.3,27.2,47.6,26.5,46.7,26.5L46.7,26.5z M46.7,26.5"/>
	<path class="st0" d="M63.2,11.3c-0.6-0.7-1.5-1.2-2.4-1.2H11.9l-1-4.8c-0.2-1-0.9-1.8-1.8-2.2l-6.9-3c-0.8-0.3-1.7,0-2.1,0.8
		c-0.3,0.8,0,1.7,0.8,2.1l6.9,3l7.6,36.9c0.3,1.5,1.6,2.5,3.1,2.5h37.6c0.9,0,1.6-0.7,1.6-1.6s-0.7-1.6-1.6-1.6H18.5l-0.9-4.5h38.8
		c1.5,0,2.8-1.1,3.1-2.5l4.4-21.3C64.1,13,63.8,12.1,63.2,11.3L63.2,11.3z M56.4,34.6H16.9l-4.4-21.3h48.3L56.4,34.6z M56.4,34.6"/>
	<path class="st0" d="M26.8,47.9c-3.1,0-5.6,2.5-5.6,5.6c0,3.1,2.5,5.6,5.6,5.6c3.1,0,5.6-2.5,5.6-5.6
		C32.4,50.4,29.9,47.9,26.8,47.9L26.8,47.9z M26.8,56c-1.4,0-2.5-1.1-2.5-2.5c0-1.4,1.1-2.5,2.5-2.5c1.4,0,2.5,1.1,2.5,2.5
		C29.3,54.9,28.2,56,26.8,56L26.8,56z M26.8,56"/>
	<path class="st0" d="M46.5,47.9c-3.1,0-5.6,2.5-5.6,5.6c0,3.1,2.5,5.6,5.6,5.6c3.1,0,5.6-2.5,5.6-5.6
		C52.2,50.4,49.6,47.9,46.5,47.9L46.5,47.9z M46.5,56c-1.4,0-2.5-1.1-2.5-2.5c0-1.4,1.1-2.5,2.5-2.5c1.4,0,2.5,1.1,2.5,2.5
		C49,54.9,47.9,56,46.5,56L46.5,56z M46.5,56"/>
	<path class="st0" d="M47.9,18.3H25.4c-0.9,0-1.6,0.7-1.6,1.6c0,0.9,0.7,1.6,1.6,1.6h22.5c0.9,0,1.6-0.7,1.6-1.6
		C49.5,19,48.8,18.3,47.9,18.3L47.9,18.3z M47.9,18.3"/>
</g>
</svg>
